<svg xmlns="http://www.w3.org/2000/svg" width="182" height="190.97" viewBox="0 0 182 190.97"><defs><style>.cls-1,.cls-2,.cls-3{fill:none;}.cls-1,.cls-2,.cls-3,.cls-7,.cls-8,.cls-9{stroke:#1b6dc6;}.cls-1,.cls-2,.cls-3,.cls-4,.cls-5,.cls-6,.cls-7,.cls-8,.cls-9{stroke-linecap:round;stroke-linejoin:round;stroke-width:2px;}.cls-2{stroke-dasharray:0 6.05;}.cls-3{stroke-dasharray:0 5.93;}.cls-4,.cls-9{fill:#fff;}.cls-4,.cls-5,.cls-6{stroke:#627386;}.cls-5{fill:#d5dae0;}.cls-6{fill:#f2f4f6;}.cls-7{fill:#bde4fd;}.cls-8{fill:#e9f6fe;}</style></defs><title>Asset 1</title><g id="Layer_2" data-name="Layer 2"><g id="Layer_1-2" data-name="Layer 1"><line class="cls-1" x1="96.68" y1="19.41" x2="96.68" y2="19.41"/><line class="cls-2" x1="101.93" y1="22.44" x2="146.48" y2="48.17"/><line class="cls-1" x1="149.11" y1="49.68" x2="149.11" y2="49.68"/><line class="cls-1" x1="32.89" y1="98.77" x2="32.89" y2="98.77"/><line class="cls-3" x1="38.03" y1="101.73" x2="50.86" y2="109.14"/><line class="cls-1" x1="53.42" y1="110.62" x2="53.42" y2="110.62"/><line class="cls-1" x1="96.68" y1="61.94" x2="96.68" y2="61.94"/><line class="cls-2" x1="101.93" y1="64.97" x2="146.48" y2="90.69"/><line class="cls-1" x1="149.11" y1="92.21" x2="149.11" y2="92.21"/><polygon class="cls-4" points="149.11 92.21 117.21 73.79 53.42 110.62 85.32 129.03 149.11 92.21"/><polygon class="cls-5" points="181 153.15 117.21 189.97 117.21 104.92 181 68.09 181 153.15"/><polygon class="cls-6" points="85.32 86.51 85.32 129.03 53.42 110.62 53.42 153.15 117.21 189.97 117.21 104.92 85.32 86.51"/><polygon class="cls-7" points="96.68 19.41 96.68 61.94 32.89 98.77 32.89 56.24 96.68 19.41"/><line class="cls-1" x1="32.89" y1="56.24" x2="32.89" y2="56.24"/><line class="cls-2" x1="38.14" y1="59.27" x2="82.7" y2="85"/><line class="cls-1" x1="85.32" y1="86.51" x2="85.32" y2="86.51"/><polygon class="cls-4" points="181 68.09 149.11 49.68 85.32 86.51 117.21 104.92 181 68.09"/><polygon class="cls-8" points="1 80.35 32.89 98.77 32.89 56.24 1 37.83 1 80.35"/><polygon class="cls-9" points="96.68 19.41 64.79 1 1 37.83 32.89 56.24 96.68 19.41"/></g></g></svg>