<?xml version="1.0" encoding="utf-8"?>
<!-- Generator: Adobe Illustrator 22.1.0, SVG Export Plug-In . SVG Version: 6.00 Build 0)  -->
<svg version="1.1" id="Layer_1" xmlns="http://www.w3.org/2000/svg" xmlns:xlink="http://www.w3.org/1999/xlink" x="0px" y="0px"
	 viewBox="0 0 341 343.5" style="enable-background:new 0 0 341 343.5;" xml:space="preserve">
<style type="text/css">
	.st0{fill:#BDE4FD;}
	.st1{fill:#E9F6FE;}
	.st2{fill:none;stroke:#1B6DC6;stroke-width:2;stroke-linecap:round;stroke-linejoin:round;stroke-miterlimit:10;}
	.st3{fill:#D3EDFD;stroke:#1B6DC6;stroke-width:2;stroke-linecap:round;stroke-linejoin:round;stroke-miterlimit:10;}
	.st4{fill:#BDE4FD;stroke:#1B6DC6;stroke-width:2;stroke-linecap:round;stroke-linejoin:round;stroke-miterlimit:10;}
	.st5{fill:#FFFFFF;}
	.st6{fill:#E9F6FE;stroke:#1B6DC6;stroke-width:2;stroke-linecap:round;stroke-linejoin:round;stroke-miterlimit:10;}
	.st7{fill:#FFFFFF;stroke:#1B6DC6;stroke-width:2;stroke-linecap:round;stroke-linejoin:round;stroke-miterlimit:10;}
	.st8{fill:#91D2FB;stroke:#91D2FB;stroke-miterlimit:10;}
	.st9{fill:none;}
	.st10{fill:#F2F4F6;stroke:#627386;stroke-width:2;stroke-linecap:round;stroke-linejoin:round;stroke-miterlimit:10;}
	.st11{fill:#FFFFFF;stroke:#627386;stroke-width:2;stroke-linecap:round;stroke-linejoin:round;stroke-miterlimit:10;}
	.st12{fill:#F2F4F6;}
	.st13{fill:#D5DAE0;}
	.st14{fill:none;stroke:#B8BFCA;stroke-width:2;stroke-linecap:round;stroke-linejoin:round;stroke-miterlimit:10;}
	.st15{fill:none;stroke:#D5DAE0;stroke-width:2;stroke-linecap:round;stroke-linejoin:round;stroke-miterlimit:10;}
	.st16{fill:#D5DAE0;stroke:#627386;stroke-width:2;stroke-linecap:round;stroke-linejoin:round;stroke-miterlimit:10;}
	.st17{fill:none;stroke:#627386;stroke-width:2;stroke-linecap:round;stroke-linejoin:round;stroke-miterlimit:10;}
</style>
<g>
	<g>
		<g>
			<path class="st0" d="M119.9,116.1V180c0,2.1-2.9,3.8-6.5,3.8c-3.6,0-6.5-1.7-6.5-3.8v-63.9H119.9z"/>
			<path class="st1" d="M113.4,116.1h-6.5V180c0,2.1,2.9,3.8,6.5,3.8V116.1z"/>
			<path class="st0" d="M119.9,76.8v55.7c0,2.1-2.9,3.8-6.5,3.8c-3.6,0-6.5-1.7-6.5-3.8V76.8H119.9z"/>
			<path class="st2" d="M119.9,117.2V180c0,2.1-2.9,3.8-6.5,3.8c-3.6,0-6.5-1.7-6.5-3.8v-62.8"/>
		</g>
		<g>
			<path class="st0" d="M235.1,116.1V180c0,2.1-2.9,3.8-6.5,3.8c-3.6,0-6.5-1.7-6.5-3.8v-63.9H235.1z"/>
			<path class="st1" d="M228.6,116.1h-6.5V180c0,2.1,2.9,3.8,6.5,3.8V116.1z"/>
			<path class="st0" d="M235.1,76.8v55.7c0,2.1-2.9,3.8-6.5,3.8c-3.6,0-6.5-1.7-6.5-3.8V76.8H235.1z"/>
			<path class="st2" d="M235.1,117.2V180c0,2.1-2.9,3.8-6.5,3.8c-3.6,0-6.5-1.7-6.5-3.8v-62.8"/>
		</g>
		<g>
			<path class="st3" d="M77.6,110v12.3c0,3.3,2.7,6,6,6h174.8c3.3,0,6-2.7,6-6V110H77.6z"/>
			<rect x="81.9" y="10.1" class="st4" width="178.3" height="100"/>
			<rect x="90.6" y="17.1" class="st5" width="160.8" height="85.8"/>
			<rect x="90.6" y="17.1" class="st1" width="160.8" height="8.2"/>
			<rect x="90.6" y="17.1" class="st2" width="160.8" height="85.8"/>
			<rect x="81.9" y="1" class="st6" width="178.3" height="9.1"/>
			<path class="st7" d="M83.6,122.4h174.8c3.3,0,6-2.7,6-6V110H77.6v6.3C77.6,119.7,80.3,122.4,83.6,122.4z"/>
		</g>
		<path class="st8" d="M192.7,62.6c0-4.1-0.6-8.1-1.7-12c-1.1-3.8-2.8-7.5-4.9-10.9c-0.9-1.4-2.3-2.2-3.9-2.2
			c-0.9,0-1.7,0.2-2.4,0.7l-33.8,20.7c-1.3,0.8-2.1,2.2-2.1,3.7c0,1.5,0.8,2.9,2.1,3.7l33.9,20.9c0.7,0.4,1.5,0.7,2.3,0.7
			c1.5,0,2.9-0.8,3.7-2c2.2-3.5,3.9-7.2,5.1-11.1C192.1,70.8,192.7,66.7,192.7,62.6z M147.4,61.3l13.9-8.5c1.9,3,2.9,6.4,2.9,9.9
			c0,3.4-1,6.8-2.9,9.9L147.4,64C146.4,63.3,146.4,61.9,147.4,61.3z M189.9,62.6c0,7.9-2.3,15.3-6.4,21.8c-0.3,0.5-0.8,0.7-1.3,0.7
			c-0.3,0-0.6-0.1-0.8-0.2L163.6,74c2.2-3.5,3.3-7.4,3.3-11.3c0-4-1.1-7.9-3.3-11.4l17.5-10.8c0.3-0.2,0.6-0.3,1-0.3
			c0.6,0,1.2,0.3,1.6,0.9C187.6,47.5,189.9,54.8,189.9,62.6z"/>
	</g>
	<line class="st9" x1="234.8" y1="208.1" x2="341" y2="278.4"/>
	<g>
		<polygon class="st10" points="91,280.6 35.9,248.8 35.9,236.4 91,268.2 		"/>
		<polygon class="st11" points="91,268.2 106.8,259.1 51.7,227.3 35.9,236.4 		"/>
		<polygon class="st12" points="60.5,232.3 98,254 82.2,263.1 44.7,241.5 		"/>
		<polygon class="st13" points="44.7,253.9 82.2,275.5 82.2,263.1 44.7,241.5 		"/>
		<polygon class="st14" points="49.7,244.4 49.7,256.8 77.1,272.6 77.1,260.2 		"/>
		<polygon class="st15" points="49.7,244.4 65.5,235.3 92.9,251.1 77.1,260.2 		"/>
		<line class="st14" x1="82.2" y1="263.1" x2="44.7" y2="241.5"/>
		<line class="st14" x1="98" y1="254" x2="60.5" y2="232.3"/>
		<line class="st14" x1="82.2" y1="275.5" x2="44.7" y2="253.9"/>
	</g>
	<path class="st16" d="M175,209.9v49.3c0,1.8-2.6,3.3-5.8,3.3c-3.2,0-5.8-1.5-5.8-3.3v-49.3H175z"/>
	<path class="st12" d="M169.2,209.9h-5.8v49.3c0,1.8,2.6,3.3,5.8,3.3V209.9z"/>
	<path class="st13" d="M175,200.9v49.3c0,1.8-2.6,3.3-5.8,3.3c-3.2,0-5.8-1.5-5.8-3.3v-49.3H175z"/>
	<path class="st13" d="M163.5,250.2c0,1.8,2.6,3.3,5.8,3.3v-28.6h-5.8V250.2z"/>
	<path class="st17" d="M175,210.8v48.3c0,1.8-2.6,3.3-5.8,3.3c-3.2,0-5.8-1.5-5.8-3.3v-48.3"/>
	<g>
		<polygon class="st10" points="106.8,259.1 51.7,227.3 51.7,214.9 106.8,246.7 		"/>
		<polygon class="st11" points="106.8,246.7 122.6,237.6 67.4,205.7 51.7,214.9 		"/>
		<polygon class="st12" points="76.2,210.8 113.8,232.5 98,241.6 60.5,219.9 		"/>
		<polygon class="st13" points="60.5,232.3 98,254 98,241.6 60.5,219.9 		"/>
		<polygon class="st14" points="65.5,222.9 65.5,235.3 92.9,251.1 92.9,238.7 		"/>
		<polygon class="st15" points="65.5,222.9 81.3,213.7 108.7,229.6 92.9,238.7 		"/>
		<line class="st14" x1="98" y1="241.6" x2="60.5" y2="219.9"/>
		<line class="st14" x1="113.8" y1="232.5" x2="76.2" y2="210.8"/>
		<line class="st14" x1="98" y1="254" x2="60.5" y2="232.3"/>
	</g>
	<polygon class="st11" points="271,193.3 255.2,184.2 169.2,134.6 83.2,184.2 67.4,193.3 122.6,225.2 138.4,216 169.2,233.9 
		200.1,216 215.9,225.2 	"/>
	<line class="st15" x1="200.1" y1="216" x2="255.2" y2="184.2"/>
	<line class="st15" x1="138.4" y1="216" x2="83.2" y2="184.2"/>
	<polygon class="st12" points="206.8,166.4 206.8,166.4 169.2,144.7 76.2,198.4 76.2,210.8 113.8,232.5 113.8,220.1 169.2,188.1 
		224.7,220.1 224.7,232.5 262.2,210.8 262.2,198.4 	"/>
	<polygon class="st17" points="271,193.3 255.2,184.2 169.2,134.6 83.2,184.2 67.4,193.3 122.6,225.2 138.4,216 169.2,233.9 
		200.1,216 215.9,225.2 	"/>
	<g>
		<polygon class="st16" points="200.1,228.5 169.2,246.3 169.2,233.9 200.1,216 		"/>
		<polygon class="st10" points="138.4,228.5 169.2,246.3 169.2,233.9 138.4,216 		"/>
	</g>
	<polygon class="st10" points="215.9,225.2 215.9,237.6 215.9,237.6 215.9,237.6 215.9,237.6 231.7,246.7 231.7,259.1 231.7,259.1 
		231.7,259.1 231.7,259.1 247.5,268.2 247.5,280.6 247.5,280.6 247.5,280.6 247.5,280.6 200.1,253.3 200.1,228.5 200.1,216 	"/>
	<g>
		<polygon class="st16" points="247.5,280.6 302.6,248.8 302.6,236.4 247.5,268.2 		"/>
		<polygon class="st11" points="247.5,268.2 231.7,259.1 286.8,227.3 302.6,236.4 		"/>
		<polygon class="st13" points="293.8,253.9 256.3,275.5 256.3,263.1 293.8,241.5 		"/>
		<polygon class="st14" points="288.7,244.4 288.7,256.8 261.3,272.6 261.3,260.2 		"/>
		<polygon class="st12" points="278,232.3 240.5,254 256.3,263.1 293.8,241.5 		"/>
		<polygon class="st15" points="288.7,244.4 273,235.3 245.6,251.1 261.3,260.2 		"/>
		<line class="st14" x1="256.3" y1="263.1" x2="293.8" y2="241.5"/>
		<polygon class="st17" points="278,232.3 293.8,241.5 293.8,253.9 256.3,275.5 256.3,263.1 240.5,254 		"/>
	</g>
	<g>
		<polygon class="st16" points="231.7,259.1 286.8,227.3 286.8,214.9 231.7,246.7 		"/>
		<polygon class="st11" points="231.7,246.7 215.9,237.6 271,205.7 286.8,214.9 		"/>
		<polygon class="st13" points="278,232.3 240.5,254 240.5,241.6 278,219.9 		"/>
		<polygon class="st14" points="273,222.9 273,235.3 245.6,251.1 245.6,238.7 		"/>
		<polygon class="st12" points="262.2,210.8 224.7,232.5 240.5,241.6 278,219.9 		"/>
		<polygon class="st15" points="273,222.9 257.2,213.7 229.8,229.6 245.6,238.7 		"/>
		<line class="st14" x1="240.5" y1="241.6" x2="278" y2="219.9"/>
		<polygon class="st17" points="262.2,210.8 278,219.9 278,232.3 240.5,254 240.5,241.6 224.7,232.5 		"/>
	</g>
	<polygon class="st16" points="215.9,237.6 271,205.7 271,193.3 215.9,225.2 	"/>
	<polygon class="st13" points="262.2,210.8 224.7,232.5 224.7,220.1 262.2,198.4 	"/>
	<polygon class="st14" points="257.2,201.3 257.2,213.7 229.8,229.6 229.8,217.2 	"/>
	<polygon class="st16" points="122.6,225.2 122.6,237.6 122.6,237.6 122.6,237.6 122.6,237.6 106.8,246.7 106.8,259.1 106.8,259.1 
		106.8,259.1 106.8,259.1 91,268.2 91,280.6 91,280.6 91,280.6 91,280.6 91,280.6 138.4,253.3 138.4,228.5 138.4,216 	"/>
	<polygon class="st10" points="122.6,237.6 67.4,205.7 67.4,193.3 122.6,225.2 	"/>
	<polygon class="st13" points="76.2,210.8 113.8,232.5 113.8,220.1 76.2,198.4 	"/>
	<polygon class="st14" points="81.3,201.3 81.3,213.7 108.7,229.6 108.7,217.2 	"/>
	<polygon class="st15" points="257.2,201.3 169.2,150.6 81.3,201.3 108.7,217.2 169.2,182.2 229.8,217.2 	"/>
	<line class="st14" x1="224.7" y1="220.1" x2="262.2" y2="198.4"/>
	<line class="st14" x1="113.8" y1="220.1" x2="76.2" y2="198.4"/>
	<line class="st14" x1="113.8" y1="232.5" x2="76.2" y2="210.8"/>
	<line class="st14" x1="82.2" y1="275.5" x2="44.7" y2="253.9"/>
	<line class="st14" x1="224.7" y1="232.5" x2="262.2" y2="210.8"/>
	<line class="st14" x1="240.5" y1="254" x2="278" y2="232.3"/>
	<line class="st14" x1="256.3" y1="275.5" x2="293.8" y2="253.9"/>
	<polygon class="st17" points="293.8,253.9 293.8,253.9 293.8,241.5 278,232.3 278,219.9 262.2,210.8 262.2,198.4 206.8,166.4 
		206.8,166.4 169.2,144.7 76.2,198.4 76.2,210.8 76.2,210.8 76.2,210.8 60.5,219.9 60.5,232.3 44.7,241.5 44.7,253.9 44.7,253.9 
		44.7,253.9 82.2,275.5 82.2,263.1 98,254 98,254 98,254 98,241.6 113.8,232.5 113.8,232.5 113.8,232.5 113.8,220.1 169.2,188.1 
		224.7,220.1 224.7,232.5 224.7,232.5 224.7,232.5 240.5,241.6 240.5,254 240.5,254 240.5,254 256.3,263.1 256.3,275.5 	"/>
	<g>
		<polygon class="st10" points="25.9,264.7 44.7,253.9 82.2,275.5 153.6,316.8 134.8,327.6 116,338.4 44.7,297.2 7.1,275.5 		"/>
		<polygon class="st15" points="17.3,275.5 44.7,259.7 77.1,278.5 77.1,278.5 143.4,316.8 116,332.6 49.7,294.3 49.7,294.3 		"/>
	</g>
	<g>
		<path class="st17" d="M225.2,256.2c-11.5,17.7-30.2,28.4-41.7,24.1"/>
		<g>
			<path class="st16" d="M186.8,278.2v29.1c0,1.1-1.5,2-3.4,2c-1.9,0-3.4-0.9-3.4-2v-29.1H186.8z"/>
			<path class="st12" d="M183.4,278.2H180v29.1c0,1.1,1.5,2,3.4,2V278.2z"/>
			<circle class="st12" cx="183.4" cy="273.6" r="6.1"/>
			<path class="st14" d="M186.5,268.3c0.5,0.3,0.9,0.6,1.3,1c0.4,0.4,0.7,0.8,1,1.3c0.3,0.5,0.5,1,0.6,1.5c0.1,0.5,0.2,1,0.2,1.6
				s-0.1,1.1-0.2,1.6c-0.1,0.5-0.3,1-0.6,1.5c-0.3,0.5-0.6,0.9-1,1.3c-0.4,0.4-0.8,0.7-1.3,1c-0.5,0.3-1,0.5-1.5,0.6
				c-0.5,0.1-1,0.2-1.6,0.2s-1.1-0.1-1.6-0.2c-0.5-0.1-1-0.3-1.5-0.6c-0.5-0.3-0.9-0.6-1.3-1c-0.4-0.4-0.7-0.8-1-1.3
				c-0.3-0.5-0.5-1-0.6-1.5c-0.1-0.5-0.2-1-0.2-1.6s0.1-1.1,0.2-1.6c0.1-0.5,0.3-1,0.6-1.5c0.3-0.5,0.6-0.9,1-1.3
				c0.4-0.4,0.8-0.7,1.3-1"/>
			<path class="st17" d="M186.8,278.7v28.6c0,1.1-1.5,2-3.4,2c-1.9,0-3.4-0.9-3.4-2v-28.6"/>
			<path class="st17" d="M180.4,278.9c-0.5-0.3-0.9-0.6-1.3-1c-0.4-0.4-0.7-0.8-1-1.3c-0.3-0.5-0.5-1-0.6-1.5
				c-0.1-0.5-0.2-1-0.2-1.6s0.1-1.1,0.2-1.6c0.1-0.5,0.3-1,0.6-1.5c0.3-0.5,0.6-0.9,1-1.3c0.4-0.4,0.8-0.7,1.3-1
				c0.5-0.3,1-0.5,1.5-0.6c0.5-0.1,1-0.2,1.6-0.2s1.1,0.1,1.6,0.2c0.5,0.1,1,0.3,1.5,0.6c0.5,0.3,0.9,0.6,1.3,1
				c0.4,0.4,0.7,0.8,1,1.3c0.3,0.5,0.5,1,0.6,1.5c0.1,0.5,0.2,1,0.2,1.6s-0.1,1.1-0.2,1.6c-0.1,0.5-0.3,1-0.6,1.5
				c-0.3,0.5-0.6,0.9-1,1.3c-0.4,0.4-0.8,0.7-1.3,1"/>
			<circle class="st5" cx="180.9" cy="271.9" r="1.4"/>
		</g>
		<g>
			<path class="st16" d="M232,252.1v29.1c0,1.1-1.5,2-3.4,2c-1.9,0-3.4-0.9-3.4-2v-29.1H232z"/>
			<path class="st12" d="M228.6,252.1h-3.4v29.1c0,1.1,1.5,2,3.4,2V252.1z"/>
			<circle class="st12" cx="228.6" cy="247.6" r="6.1"/>
			<path class="st14" d="M231.6,242.2c0.5,0.3,0.9,0.6,1.3,1c0.4,0.4,0.7,0.8,1,1.3c0.3,0.5,0.5,1,0.6,1.5c0.1,0.5,0.2,1,0.2,1.6
				s-0.1,1.1-0.2,1.6c-0.1,0.5-0.3,1-0.6,1.5c-0.3,0.5-0.6,0.9-1,1.3c-0.4,0.4-0.8,0.7-1.3,1c-0.5,0.3-1,0.5-1.5,0.6
				c-0.5,0.1-1,0.2-1.6,0.2c-0.6,0-1.1-0.1-1.6-0.2c-0.5-0.1-1-0.3-1.5-0.6c-0.5-0.3-0.9-0.6-1.3-1c-0.4-0.4-0.7-0.8-1-1.3
				c-0.3-0.5-0.5-1-0.6-1.5c-0.1-0.5-0.2-1-0.2-1.6s0.1-1.1,0.2-1.6c0.1-0.5,0.3-1,0.6-1.5c0.3-0.5,0.6-0.9,1-1.3
				c0.4-0.4,0.8-0.7,1.3-1"/>
			<path class="st17" d="M232,252.7v28.6c0,1.1-1.5,2-3.4,2c-1.9,0-3.4-0.9-3.4-2v-28.6"/>
			<path class="st17" d="M225.5,252.9c-0.5-0.3-0.9-0.6-1.3-1c-0.4-0.4-0.7-0.8-1-1.3c-0.3-0.5-0.5-1-0.6-1.5
				c-0.1-0.5-0.2-1-0.2-1.6s0.1-1.1,0.2-1.6c0.1-0.5,0.3-1,0.6-1.5c0.3-0.5,0.6-0.9,1-1.3c0.4-0.4,0.8-0.7,1.3-1
				c0.5-0.3,1-0.5,1.5-0.6c0.5-0.1,1-0.2,1.6-0.2c0.6,0,1.1,0.1,1.6,0.2c0.5,0.1,1,0.3,1.5,0.6c0.5,0.3,0.9,0.6,1.3,1
				c0.4,0.4,0.7,0.8,1,1.3c0.3,0.5,0.5,1,0.6,1.5c0.1,0.5,0.2,1,0.2,1.6s-0.1,1.1-0.2,1.6c-0.1,0.5-0.3,1-0.6,1.5
				c-0.3,0.5-0.6,0.9-1,1.3c-0.4,0.4-0.8,0.7-1.3,1"/>
			<circle class="st5" cx="226" cy="245.8" r="1.4"/>
		</g>
	</g>
	<g>
		<polygon class="st10" points="312.6,264.7 293.8,253.9 256.3,275.5 184.9,316.8 203.7,327.6 222.4,338.4 293.8,297.2 331.4,275.5 
					"/>
		<polygon class="st15" points="321.2,275.5 293.8,259.7 261.3,278.5 261.3,278.5 195,316.8 222.4,332.6 288.7,294.3 288.7,294.3 		
			"/>
	</g>
	<g>
		<g>
			<path class="st16" d="M113.3,252.1v29.1c0,1.1-1.5,2-3.4,2c-1.9,0-3.4-0.9-3.4-2v-29.1H113.3z"/>
			<path class="st12" d="M109.9,252.1h-3.4v29.1c0,1.1,1.5,2,3.4,2V252.1z"/>
			<circle class="st12" cx="109.9" cy="247.6" r="6.1"/>
			<path class="st14" d="M106.8,242.2c-0.5,0.3-0.9,0.6-1.3,1c-0.4,0.4-0.7,0.8-1,1.3c-0.3,0.5-0.5,1-0.6,1.5
				c-0.1,0.5-0.2,1-0.2,1.6s0.1,1.1,0.2,1.6c0.1,0.5,0.3,1,0.6,1.5c0.3,0.5,0.6,0.9,1,1.3c0.4,0.4,0.8,0.7,1.3,1
				c0.5,0.3,1,0.5,1.5,0.6c0.5,0.1,1,0.2,1.6,0.2c0.6,0,1.1-0.1,1.6-0.2c0.5-0.1,1-0.3,1.5-0.6c0.5-0.3,0.9-0.6,1.3-1s0.7-0.8,1-1.3
				c0.3-0.5,0.5-1,0.6-1.5c0.1-0.5,0.2-1,0.2-1.6s-0.1-1.1-0.2-1.6c-0.1-0.5-0.3-1-0.6-1.5c-0.3-0.5-0.6-0.9-1-1.3
				c-0.4-0.4-0.8-0.7-1.3-1"/>
			<path class="st17" d="M113.3,252.7v28.6c0,1.1-1.5,2-3.4,2c-1.9,0-3.4-0.9-3.4-2v-28.6"/>
			<path class="st17" d="M113,252.9c0.5-0.3,0.9-0.6,1.3-1s0.7-0.8,1-1.3c0.3-0.5,0.5-1,0.6-1.5c0.1-0.5,0.2-1,0.2-1.6
				s-0.1-1.1-0.2-1.6c-0.1-0.5-0.3-1-0.6-1.5c-0.3-0.5-0.6-0.9-1-1.3c-0.4-0.4-0.8-0.7-1.3-1c-0.5-0.3-1-0.5-1.5-0.6
				c-0.5-0.1-1-0.2-1.6-0.2c-0.6,0-1.1,0.1-1.6,0.2c-0.5,0.1-1,0.3-1.5,0.6c-0.5,0.3-0.9,0.6-1.3,1c-0.4,0.4-0.7,0.8-1,1.3
				c-0.3,0.5-0.5,1-0.6,1.5c-0.1,0.5-0.2,1-0.2,1.6s0.1,1.1,0.2,1.6c0.1,0.5,0.3,1,0.6,1.5c0.3,0.5,0.6,0.9,1,1.3
				c0.4,0.4,0.8,0.7,1.3,1"/>
			<circle class="st5" cx="107.4" cy="245.8" r="1.4"/>
		</g>
		<path class="st17" d="M113.3,256.2c11.5,17.7,30.2,28.4,41.7,24.1"/>
		<g>
			<path class="st16" d="M158.5,278.2v29.1c0,1.1-1.5,2-3.4,2c-1.9,0-3.4-0.9-3.4-2v-29.1H158.5z"/>
			<path class="st12" d="M155,278.2h-3.4v29.1c0,1.1,1.5,2,3.4,2V278.2z"/>
			<circle class="st12" cx="155" cy="273.6" r="6.1"/>
			<path class="st14" d="M152,268.3c-0.5,0.3-0.9,0.6-1.3,1c-0.4,0.4-0.7,0.8-1,1.3c-0.3,0.5-0.5,1-0.6,1.5c-0.1,0.5-0.2,1-0.2,1.6
				s0.1,1.1,0.2,1.6c0.1,0.5,0.3,1,0.6,1.5c0.3,0.5,0.6,0.9,1,1.3s0.8,0.7,1.3,1c0.5,0.3,1,0.5,1.5,0.6c0.5,0.1,1,0.2,1.6,0.2
				c0.6,0,1.1-0.1,1.6-0.2c0.5-0.1,1-0.3,1.5-0.6c0.5-0.3,0.9-0.6,1.3-1c0.4-0.4,0.7-0.8,1-1.3c0.3-0.5,0.5-1,0.6-1.5
				c0.1-0.5,0.2-1,0.2-1.6s-0.1-1.1-0.2-1.6c-0.1-0.5-0.3-1-0.6-1.5c-0.3-0.5-0.6-0.9-1-1.3c-0.4-0.4-0.8-0.7-1.3-1"/>
			<path class="st17" d="M158.5,278.7v28.6c0,1.1-1.5,2-3.4,2c-1.9,0-3.4-0.9-3.4-2v-28.6"/>
			<path class="st17" d="M158.1,278.9c0.5-0.3,0.9-0.6,1.3-1c0.4-0.4,0.7-0.8,1-1.3c0.3-0.5,0.5-1,0.6-1.5c0.1-0.5,0.2-1,0.2-1.6
				s-0.1-1.1-0.2-1.6c-0.1-0.5-0.3-1-0.6-1.5c-0.3-0.5-0.6-0.9-1-1.3c-0.4-0.4-0.8-0.7-1.3-1c-0.5-0.3-1-0.5-1.5-0.6
				c-0.5-0.1-1-0.2-1.6-0.2c-0.6,0-1.1,0.1-1.6,0.2c-0.5,0.1-1,0.3-1.5,0.6c-0.5,0.3-0.9,0.6-1.3,1c-0.4,0.4-0.7,0.8-1,1.3
				c-0.3,0.5-0.5,1-0.6,1.5c-0.1,0.5-0.2,1-0.2,1.6s0.1,1.1,0.2,1.6c0.1,0.5,0.3,1,0.6,1.5c0.3,0.5,0.6,0.9,1,1.3s0.8,0.7,1.3,1"/>
			<circle class="st5" cx="152.5" cy="271.9" r="1.4"/>
		</g>
	</g>
	<g>
		<path class="st17" d="M55.7,289.5c11.5,17.7,30.2,28.4,41.7,24.1"/>
		<g>
			<path class="st16" d="M100.8,311.4v29.1c0,1.1-1.5,2-3.4,2c-1.9,0-3.4-0.9-3.4-2v-29.1H100.8z"/>
			<path class="st12" d="M97.4,311.4H94v29.1c0,1.1,1.5,2,3.4,2V311.4z"/>
			<circle class="st12" cx="97.4" cy="306.9" r="6.1"/>
			<path class="st14" d="M94.3,301.6c-0.5,0.3-0.9,0.6-1.3,1c-0.4,0.4-0.7,0.8-1,1.3c-0.3,0.5-0.5,1-0.6,1.5c-0.1,0.5-0.2,1-0.2,1.6
				s0.1,1.1,0.2,1.6c0.1,0.5,0.3,1,0.6,1.5c0.3,0.5,0.6,0.9,1,1.3c0.4,0.4,0.8,0.7,1.3,1c0.5,0.3,1,0.5,1.5,0.6
				c0.5,0.1,1,0.2,1.6,0.2c0.6,0,1.1-0.1,1.6-0.2c0.5-0.1,1-0.3,1.5-0.6c0.5-0.3,0.9-0.6,1.3-1c0.4-0.4,0.7-0.8,1-1.3
				c0.3-0.5,0.5-1,0.6-1.5c0.1-0.5,0.2-1,0.2-1.6s-0.1-1.1-0.2-1.6c-0.1-0.5-0.3-1-0.6-1.5c-0.3-0.5-0.6-0.9-1-1.3
				c-0.4-0.4-0.8-0.7-1.3-1"/>
			<path class="st17" d="M100.8,312v28.6c0,1.1-1.5,2-3.4,2c-1.9,0-3.4-0.9-3.4-2V312"/>
			<path class="st17" d="M100.5,312.2c0.5-0.3,0.9-0.6,1.3-1c0.4-0.4,0.7-0.8,1-1.3c0.3-0.5,0.5-1,0.6-1.5c0.1-0.5,0.2-1,0.2-1.6
				s-0.1-1.1-0.2-1.6c-0.1-0.5-0.3-1-0.6-1.5c-0.3-0.5-0.6-0.9-1-1.3c-0.4-0.4-0.8-0.7-1.3-1c-0.5-0.3-1-0.5-1.5-0.6
				c-0.5-0.1-1-0.2-1.6-0.2c-0.6,0-1.1,0.1-1.6,0.2c-0.5,0.1-1,0.3-1.5,0.6c-0.5,0.3-0.9,0.6-1.3,1c-0.4,0.4-0.7,0.8-1,1.3
				c-0.3,0.5-0.5,1-0.6,1.5c-0.1,0.5-0.2,1-0.2,1.6s0.1,1.1,0.2,1.6c0.1,0.5,0.3,1,0.6,1.5c0.3,0.5,0.6,0.9,1,1.3
				c0.4,0.4,0.8,0.7,1.3,1"/>
			<circle class="st5" cx="94.9" cy="305.2" r="1.4"/>
		</g>
	</g>
	<g>
		<g>
			<path class="st16" d="M10.6,259.3v29.1c0,1.1-1.5,2-3.4,2c-1.9,0-3.4-0.9-3.4-2v-29.1H10.6z"/>
			<path class="st12" d="M7.1,259.3H3.7v29.1c0,1.1,1.5,2,3.4,2V259.3z"/>
			<circle class="st12" cx="7.1" cy="254.8" r="6.1"/>
			<path class="st14" d="M4.1,249.4c-0.5,0.3-0.9,0.6-1.3,1s-0.7,0.8-1,1.3c-0.3,0.5-0.5,1-0.6,1.5c-0.1,0.5-0.2,1-0.2,1.6
				c0,0.6,0.1,1.1,0.2,1.6c0.1,0.5,0.3,1,0.6,1.5c0.3,0.5,0.6,0.9,1,1.3s0.8,0.7,1.3,1c0.5,0.3,1,0.5,1.5,0.6c0.5,0.1,1,0.2,1.6,0.2
				s1.1-0.1,1.6-0.2c0.5-0.1,1-0.3,1.5-0.6c0.5-0.3,0.9-0.6,1.3-1s0.7-0.8,1-1.3c0.3-0.5,0.5-1,0.6-1.5c0.1-0.5,0.2-1,0.2-1.6
				c0-0.6-0.1-1.1-0.2-1.6c-0.1-0.5-0.3-1-0.6-1.5c-0.3-0.5-0.6-0.9-1-1.3s-0.8-0.7-1.3-1"/>
			<path class="st17" d="M10.6,259.9v28.6c0,1.1-1.5,2-3.4,2c-1.9,0-3.4-0.9-3.4-2v-28.6"/>
			<path class="st17" d="M10.2,260.1c0.5-0.3,0.9-0.6,1.3-1s0.7-0.8,1-1.3c0.3-0.5,0.5-1,0.6-1.5c0.1-0.5,0.2-1,0.2-1.6
				c0-0.6-0.1-1.1-0.2-1.6c-0.1-0.5-0.3-1-0.6-1.5c-0.3-0.5-0.6-0.9-1-1.3s-0.8-0.7-1.3-1c-0.5-0.3-1-0.5-1.5-0.6
				c-0.5-0.1-1-0.2-1.6-0.2s-1.1,0.1-1.6,0.2c-0.5,0.1-1,0.3-1.5,0.6c-0.5,0.3-0.9,0.6-1.3,1s-0.7,0.8-1,1.3c-0.3,0.5-0.5,1-0.6,1.5
				c-0.1,0.5-0.2,1-0.2,1.6c0,0.6,0.1,1.1,0.2,1.6c0.1,0.5,0.3,1,0.6,1.5c0.3,0.5,0.6,0.9,1,1.3s0.8,0.7,1.3,1"/>
			<circle class="st5" cx="4.6" cy="253" r="1.4"/>
		</g>
		<path class="st17" d="M10.6,263.4c11.5,17.7,30.2,28.4,41.7,24.1"/>
		<g>
			<path class="st16" d="M55.7,285.4v29.1c0,1.1-1.5,2-3.4,2c-1.9,0-3.4-0.9-3.4-2v-29.1H55.7z"/>
			<path class="st12" d="M52.3,285.4h-3.4v29.1c0,1.1,1.5,2,3.4,2V285.4z"/>
			<circle class="st12" cx="52.3" cy="280.8" r="6.1"/>
			<path class="st14" d="M49.2,275.5c-0.5,0.3-0.9,0.6-1.3,1c-0.4,0.4-0.7,0.8-1,1.3c-0.3,0.5-0.5,1-0.6,1.5c-0.1,0.5-0.2,1-0.2,1.6
				c0,0.5,0.1,1.1,0.2,1.6c0.1,0.5,0.3,1,0.6,1.5c0.3,0.5,0.6,0.9,1,1.3c0.4,0.4,0.8,0.7,1.3,1c0.5,0.3,1,0.5,1.5,0.6
				c0.5,0.1,1,0.2,1.6,0.2s1.1-0.1,1.6-0.2c0.5-0.1,1-0.3,1.5-0.6c0.5-0.3,0.9-0.6,1.3-1s0.7-0.8,1-1.3c0.3-0.5,0.5-1,0.6-1.5
				c0.1-0.5,0.2-1,0.2-1.6c0-0.6-0.1-1.1-0.2-1.6c-0.1-0.5-0.3-1-0.6-1.5c-0.3-0.5-0.6-0.9-1-1.3s-0.8-0.7-1.3-1"/>
			<path class="st17" d="M55.7,285.9v28.6c0,1.1-1.5,2-3.4,2c-1.9,0-3.4-0.9-3.4-2v-28.6"/>
			<path class="st17" d="M55.4,286.1c0.5-0.3,0.9-0.6,1.3-1s0.7-0.8,1-1.3c0.3-0.5,0.5-1,0.6-1.5c0.1-0.5,0.2-1,0.2-1.6
				c0-0.6-0.1-1.1-0.2-1.6c-0.1-0.5-0.3-1-0.6-1.5c-0.3-0.5-0.6-0.9-1-1.3s-0.8-0.7-1.3-1c-0.5-0.3-1-0.5-1.5-0.6
				c-0.5-0.1-1-0.2-1.6-0.2s-1.1,0.1-1.6,0.2c-0.5,0.1-1,0.3-1.5,0.6c-0.5,0.3-0.9,0.6-1.3,1c-0.4,0.4-0.7,0.8-1,1.3
				c-0.3,0.5-0.5,1-0.6,1.5c-0.1,0.5-0.2,1-0.2,1.6c0,0.5,0.1,1.1,0.2,1.6c0.1,0.5,0.3,1,0.6,1.5c0.3,0.5,0.6,0.9,1,1.3
				c0.4,0.4,0.8,0.7,1.3,1"/>
			<circle class="st5" cx="49.8" cy="279.1" r="1.4"/>
		</g>
	</g>
	<g>
		<path class="st17" d="M327.9,263.4c-11.5,17.7-30.2,28.4-41.7,24.1"/>
		<g>
			<path class="st16" d="M334.7,259.3v29.1c0,1.1-1.5,2-3.4,2c-1.9,0-3.4-0.9-3.4-2v-29.1H334.7z"/>
			<path class="st12" d="M331.3,259.3h-3.4v29.1c0,1.1,1.5,2,3.4,2V259.3z"/>
			<circle class="st12" cx="331.3" cy="254.8" r="6.1"/>
			<path class="st14" d="M334.4,249.4c0.5,0.3,0.9,0.6,1.3,1s0.7,0.8,1,1.3c0.3,0.5,0.5,1,0.6,1.5c0.1,0.5,0.2,1,0.2,1.6
				c0,0.6-0.1,1.1-0.2,1.6c-0.1,0.5-0.3,1-0.6,1.5c-0.3,0.5-0.6,0.9-1,1.3c-0.4,0.4-0.8,0.7-1.3,1c-0.5,0.3-1,0.5-1.5,0.6
				c-0.5,0.1-1,0.2-1.6,0.2c-0.6,0-1.1-0.1-1.6-0.2c-0.5-0.1-1-0.3-1.5-0.6c-0.5-0.3-0.9-0.6-1.3-1c-0.4-0.4-0.7-0.8-1-1.3
				c-0.3-0.5-0.5-1-0.6-1.5c-0.1-0.5-0.2-1-0.2-1.6c0-0.6,0.1-1.1,0.2-1.6c0.1-0.5,0.3-1,0.6-1.5c0.3-0.5,0.6-0.9,1-1.3
				s0.8-0.7,1.3-1"/>
			<path class="st17" d="M334.7,259.9v28.6c0,1.1-1.5,2-3.4,2c-1.9,0-3.4-0.9-3.4-2v-28.6"/>
			<path class="st17" d="M328.3,260.1c-0.5-0.3-0.9-0.6-1.3-1c-0.4-0.4-0.7-0.8-1-1.3c-0.3-0.5-0.5-1-0.6-1.5
				c-0.1-0.5-0.2-1-0.2-1.6c0-0.6,0.1-1.1,0.2-1.6c0.1-0.5,0.3-1,0.6-1.5c0.3-0.5,0.6-0.9,1-1.3s0.8-0.7,1.3-1
				c0.5-0.3,1-0.5,1.5-0.6c0.5-0.1,1-0.2,1.6-0.2c0.5,0,1.1,0.1,1.6,0.2c0.5,0.1,1,0.3,1.5,0.6c0.5,0.3,0.9,0.6,1.3,1s0.7,0.8,1,1.3
				c0.3,0.5,0.5,1,0.6,1.5c0.1,0.5,0.2,1,0.2,1.6c0,0.6-0.1,1.1-0.2,1.6c-0.1,0.5-0.3,1-0.6,1.5c-0.3,0.5-0.6,0.9-1,1.3
				c-0.4,0.4-0.8,0.7-1.3,1"/>
			<circle class="st5" cx="328.8" cy="253" r="1.4"/>
		</g>
		<g>
			<path class="st17" d="M282.8,289.5c-11.5,17.7-30.2,28.4-41.7,24.1"/>
			<g>
				<path class="st16" d="M244.5,311.4v29.1c0,1.1-1.5,2-3.4,2c-1.9,0-3.4-0.9-3.4-2v-29.1H244.5z"/>
				<path class="st12" d="M241.1,311.4h-3.4v29.1c0,1.1,1.5,2,3.4,2V311.4z"/>
				<circle class="st12" cx="241.1" cy="306.9" r="6.1"/>
				<path class="st14" d="M244.1,301.6c0.5,0.3,0.9,0.6,1.3,1c0.4,0.4,0.7,0.8,1,1.3c0.3,0.5,0.5,1,0.6,1.5c0.1,0.5,0.2,1,0.2,1.6
					s-0.1,1.1-0.2,1.6c-0.1,0.5-0.3,1-0.6,1.5c-0.3,0.5-0.6,0.9-1,1.3c-0.4,0.4-0.8,0.7-1.3,1c-0.5,0.3-1,0.5-1.5,0.6
					c-0.5,0.1-1,0.2-1.6,0.2s-1.1-0.1-1.6-0.2c-0.5-0.1-1-0.3-1.5-0.6c-0.5-0.3-0.9-0.6-1.3-1s-0.7-0.8-1-1.3
					c-0.3-0.5-0.5-1-0.6-1.5c-0.1-0.5-0.2-1-0.2-1.6s0.1-1.1,0.2-1.6c0.1-0.5,0.3-1,0.6-1.5c0.3-0.5,0.6-0.9,1-1.3
					c0.4-0.4,0.8-0.7,1.3-1"/>
				<path class="st17" d="M244.5,312v28.6c0,1.1-1.5,2-3.4,2c-1.9,0-3.4-0.9-3.4-2V312"/>
				<path class="st17" d="M238,312.2c-0.5-0.3-0.9-0.6-1.3-1s-0.7-0.8-1-1.3c-0.3-0.5-0.5-1-0.6-1.5c-0.1-0.5-0.2-1-0.2-1.6
					s0.1-1.1,0.2-1.6c0.1-0.5,0.3-1,0.6-1.5c0.3-0.5,0.6-0.9,1-1.3c0.4-0.4,0.8-0.7,1.3-1c0.5-0.3,1-0.5,1.5-0.6
					c0.5-0.1,1-0.2,1.6-0.2s1.1,0.1,1.6,0.2c0.5,0.1,1,0.3,1.5,0.6c0.5,0.3,0.9,0.6,1.3,1c0.4,0.4,0.7,0.8,1,1.3
					c0.3,0.5,0.5,1,0.6,1.5c0.1,0.5,0.2,1,0.2,1.6s-0.1,1.1-0.2,1.6c-0.1,0.5-0.3,1-0.6,1.5c-0.3,0.5-0.6,0.9-1,1.3
					c-0.4,0.4-0.8,0.7-1.3,1"/>
				<circle class="st5" cx="238.5" cy="305.2" r="1.4"/>
			</g>
			<g>
				<path class="st16" d="M289.6,285.4v29.1c0,1.1-1.5,2-3.4,2c-1.9,0-3.4-0.9-3.4-2v-29.1H289.6z"/>
				<path class="st12" d="M286.2,285.4h-3.4v29.1c0,1.1,1.5,2,3.4,2V285.4z"/>
				<circle class="st12" cx="286.2" cy="280.8" r="6.1"/>
				<path class="st14" d="M289.3,275.5c0.5,0.3,0.9,0.6,1.3,1c0.4,0.4,0.7,0.8,1,1.3c0.3,0.5,0.5,1,0.6,1.5c0.1,0.5,0.2,1,0.2,1.6
					c0,0.5-0.1,1.1-0.2,1.6c-0.1,0.5-0.3,1-0.6,1.5c-0.3,0.5-0.6,0.9-1,1.3c-0.4,0.4-0.8,0.7-1.3,1c-0.5,0.3-1,0.5-1.5,0.6
					c-0.5,0.1-1,0.2-1.6,0.2s-1.1-0.1-1.6-0.2c-0.5-0.1-1-0.3-1.5-0.6c-0.5-0.3-0.9-0.6-1.3-1s-0.7-0.8-1-1.3
					c-0.3-0.5-0.5-1-0.6-1.5c-0.1-0.5-0.2-1-0.2-1.6c0-0.6,0.1-1.1,0.2-1.6c0.1-0.5,0.3-1,0.6-1.5c0.3-0.5,0.6-0.9,1-1.3
					s0.8-0.7,1.3-1"/>
				<path class="st17" d="M289.6,285.9v28.6c0,1.1-1.5,2-3.4,2c-1.9,0-3.4-0.9-3.4-2v-28.6"/>
				<path class="st17" d="M283.1,286.1c-0.5-0.3-0.9-0.6-1.3-1s-0.7-0.8-1-1.3c-0.3-0.5-0.5-1-0.6-1.5c-0.1-0.5-0.2-1-0.2-1.6
					c0-0.6,0.1-1.1,0.2-1.6c0.1-0.5,0.3-1,0.6-1.5c0.3-0.5,0.6-0.9,1-1.3s0.8-0.7,1.3-1c0.5-0.3,1-0.5,1.5-0.6
					c0.5-0.1,1-0.2,1.6-0.2s1.1,0.1,1.6,0.2c0.5,0.1,1,0.3,1.5,0.6c0.5,0.3,0.9,0.6,1.3,1c0.4,0.4,0.7,0.8,1,1.3
					c0.3,0.5,0.5,1,0.6,1.5c0.1,0.5,0.2,1,0.2,1.6c0,0.5-0.1,1.1-0.2,1.6c-0.1,0.5-0.3,1-0.6,1.5c-0.3,0.5-0.6,0.9-1,1.3
					c-0.4,0.4-0.8,0.7-1.3,1"/>
				<circle class="st5" cx="283.7" cy="279.1" r="1.4"/>
			</g>
		</g>
	</g>
</g>
</svg>
