<?xml version="1.0" encoding="UTF-8"?>
<svg width="25px" height="22px" viewBox="0 0 25 22" version="1.1" xmlns="http://www.w3.org/2000/svg" xmlns:xlink="http://www.w3.org/1999/xlink">
    <!-- Generator: Sketch 52.5 (67469) - http://www.bohemiancoding.com/sketch -->
    <title>Artboard</title>
    <desc>Created with Sketch.</desc>
    <g id="Artboard" stroke="none" stroke-width="1" fill="none" fill-rule="evenodd">
        <g id="Group" transform="translate(4.000000, 5.000000)" fill="#1B2025" fill-rule="nonzero">
            <path d="M13.275578,0.0801146053 C13.32327,0.0306279053 13.38883,5.3117617e-09 13.460973,5.3117617e-09 L16.735611,5.3117617e-09 C16.881643,5.3117617e-09 17,0.125205605 17,0.279337505 C17,0.369945005 16.959159,0.450343105 16.895883,0.501389605 L12.088782,4.91846751 C12.040821,4.96880491 11.974858,5.00000001 11.901775,5.00000001 C11.824124,5.00000001 11.754265,4.96483471 11.705902,4.90868361 L10.06865,3.40451481 C10.026063,3.35488631 10,3.28909311 10,3.21691911 C10,3.13113271 10.036542,3.05442121 10.094444,3.00294941 L13.275578,0.0801146053 Z" id="Nutanix-Logo-path"></path>
            <path d="M13.275578,11.9197436 L10.094444,8.99719241 C10.036542,8.94557881 10,8.86900911 10,8.78308091 C10,8.71090691 10.026063,8.64511371 10.06865,8.59548521 L11.705902,7.09131641 C11.754265,7.03530711 11.824124,7.00000001 11.901775,7.00000001 C11.974858,7.00000001 12.040821,7.03119511 12.088782,7.08139071 L16.895883,11.4984686 C16.959159,11.5495151 17,11.630055 17,11.7206625 C17,11.8747944 16.881643,12 16.735611,12 L13.460973,12 C13.38883,12 13.32327,11.9693721 13.275578,11.9197436 Z" id="Nutanix-Logo-path"></path>
            <path d="M4.094371,11.9261512 C4.042644,11.9717721 3.973626,12 3.89781,12 L0.29085,12 C0.130203,12 0,11.8741149 0,11.7190039 C0,11.641591 0.032514,11.5714489 0.085127,11.5208383 L6.405804,6.21456071 C6.469206,6.16309461 6.509405,6.08596681 6.509405,5.99971491 C6.509405,5.91816761 6.473344,5.84488901 6.416002,5.79370811 L0.10301,0.494986505 C0.039903,0.443520405 0,0.366820305 0,0.280853505 C0,0.125885105 0.130203,5.3117617e-09 0.29085,5.3117617e-09 L3.89781,5.3117617e-09 C3.973922,5.3117617e-09 4.043235,0.0280853053 4.094962,0.0741339053 L10.899503,5.78786291 C10.961131,5.83918641 11,5.91488861 11,5.99971491 C11,6.08468371 10.960983,6.16095611 10.89906,6.21256471 L4.094371,11.9261512 Z" id="Nutanix-Logo-path"></path>
        </g>
    </g>
</svg>