<svg xmlns="http://www.w3.org/2000/svg" width="232" height="134.79" viewBox="0 0 232 134.79"><defs><style>.cls-1,.cls-2{fill:none;}.cls-1{stroke:#b8bfca;}.cls-1,.cls-2,.cls-3,.cls-4,.cls-5{stroke-linecap:round;stroke-linejoin:round;stroke-width:2px;}.cls-2{stroke:#d5dae0;stroke-dasharray:0 6;}.cls-3{fill:#fff;}.cls-3,.cls-4,.cls-5{stroke:#1b6dc6;}.cls-4{fill:#bde4fd;}.cls-5{fill:#e9f6fe;}</style></defs><title>Asset 4</title><g id="Layer_2" data-name="Layer 2"><g id="Layer_1-2" data-name="Layer 1"><polygon class="cls-1" points="139 14.28 116 1 93 14.28 116 27.56 139 14.28"/><polygon class="cls-1" points="47 67.39 24 54.12 1 67.39 24 80.67 47 67.39"/><line class="cls-2" x1="98.77" y1="24.22" x2="87.23" y2="30.89"/><polygon class="cls-1" points="93 40.84 70 27.56 47 40.84 70 54.12 93 40.84"/><line class="cls-2" x1="52.77" y1="50.78" x2="41.23" y2="57.45"/><polygon class="cls-1" points="185 40.84 162 27.56 139 40.84 162 54.12 185 40.84"/><polygon class="cls-1" points="93 93.95 70 80.67 47 93.95 70 107.23 93 93.95"/><line class="cls-2" x1="144.77" y1="50.78" x2="133.23" y2="57.45"/><polygon class="cls-1" points="139 67.39 116 54.12 93 67.39 116 80.67 139 67.39"/><line class="cls-2" x1="98.77" y1="77.34" x2="87.23" y2="84.01"/><polygon class="cls-1" points="231 67.39 208 54.12 185 67.39 208 80.67 231 67.39"/><polygon class="cls-1" points="139 120.51 116 107.23 93 120.51 116 133.79 139 120.51"/><line class="cls-2" x1="190.77" y1="77.34" x2="179.23" y2="84.01"/><polygon class="cls-1" points="185 93.95 162 80.67 139 93.95 162 107.23 185 93.95"/><line class="cls-2" x1="144.77" y1="103.9" x2="133.23" y2="110.57"/><line class="cls-2" x1="133.23" y1="24.22" x2="144.77" y2="30.89"/><line class="cls-2" x1="179.23" y1="50.78" x2="190.77" y2="57.45"/><line class="cls-2" x1="87.23" y1="50.78" x2="98.77" y2="57.45"/><line class="cls-2" x1="133.23" y1="77.34" x2="144.77" y2="84.01"/><line class="cls-2" x1="41.23" y1="77.34" x2="52.77" y2="84.01"/><line class="cls-2" x1="87.23" y1="103.9" x2="98.77" y2="110.57"/><polygon class="cls-3" points="139 36.45 116 23.17 93 36.45 116 49.73 139 36.45"/><polygon class="cls-4" points="139 67.12 116 80.39 116 49.73 139 36.45 139 67.12"/><polygon class="cls-5" points="93 67.12 116 80.39 116 49.73 93 36.45 93 67.12"/></g></g></svg>