<?xml version="1.0" encoding="UTF-8"?>
<svg width="318px" height="295px" content="nopin" viewBox="0 0 318 295" version="1.1" xmlns="http://www.w3.org/2000/svg" xmlns:xlink="http://www.w3.org/1999/xlink">
    <!-- Generator: Sketch 52.5 (67469) - http://www.bohemiancoding.com/sketch -->
    <title>Page 1</title>
    <desc>Created with Sketch.</desc>
    <g id="Page-1" stroke="none" stroke-width="1" fill="none" fill-rule="evenodd" opacity="0.178781703">
        <g id="Artboard" stroke="#FFFFFF">
            <g id="Page-1">
                <path d="M315.2273,111.5001 C315.2273,162.8621 273.5893,204.5001 222.2273,204.5001 C170.8653,204.5001 129.2273,162.8621 129.2273,111.5001 C129.2273,60.1381 170.8653,18.5001 222.2273,18.5001 C273.5893,18.5001 315.2273,60.1381 315.2273,111.5001 Z" id="Stroke-1" style="mix-blend-mode: overlay;"></path>
                <path d="M317.1023,135.7706 C317.1023,187.1326 275.4653,228.7706 224.1023,228.7706 C172.7403,228.7706 131.1023,187.1326 131.1023,135.7706 C131.1023,84.4086 172.7403,42.7706 224.1023,42.7706 C275.4653,42.7706 317.1023,84.4086 317.1023,135.7706 Z" id="Stroke-3" style="mix-blend-mode: overlay;"></path>
                <path d="M313.3806,155.9776 C313.3806,207.3396 271.7436,248.9776 220.3806,248.9776 C169.0186,248.9776 127.3806,207.3396 127.3806,155.9776 C127.3806,104.6146 169.0186,62.9776 220.3806,62.9776 C271.7436,62.9776 313.3806,104.6146 313.3806,155.9776 Z" id="Stroke-5" style="mix-blend-mode: overlay;"></path>
                <path d="M305.0627,172.2735 C305.0627,223.6355 263.4247,265.2735 212.0627,265.2735 C160.6997,265.2735 119.0627,223.6355 119.0627,172.2735 C119.0627,120.9115 160.6997,79.2735 212.0627,79.2735 C263.4247,79.2735 305.0627,120.9115 305.0627,172.2735 Z" id="Stroke-7" style="mix-blend-mode: overlay;"></path>
                <path d="M293.1482,184.8135 C293.1482,236.1755 251.5112,277.8135 200.1482,277.8135 C148.7862,277.8135 107.1482,236.1755 107.1482,184.8135 C107.1482,133.4515 148.7862,91.8135 200.1482,91.8135 C251.5112,91.8135 293.1482,133.4515 293.1482,184.8135 Z" id="Stroke-9" style="mix-blend-mode: overlay;"></path>
                <path d="M278.6384,193.75 C278.6384,245.112 237.0004,286.75 185.6384,286.75 C134.2764,286.75 92.6384,245.112 92.6384,193.75 C92.6384,142.388 134.2764,100.75 185.6384,100.75 C237.0004,100.75 278.6384,142.388 278.6384,193.75 Z" id="Stroke-11" style="mix-blend-mode: overlay;"></path>
                <path d="M262.5334,199.2373 C262.5334,250.5993 220.8954,292.2373 169.5334,292.2373 C118.1704,292.2373 76.5334,250.5993 76.5334,199.2373 C76.5334,147.8753 118.1704,106.2373 169.5334,106.2373 C220.8954,106.2373 262.5334,147.8753 262.5334,199.2373 Z" id="Stroke-13" style="mix-blend-mode: overlay;"></path>
                <path d="M245.8332,201.4288 C245.8332,252.7908 204.1962,294.4288 152.8332,294.4288 C101.4712,294.4288 59.8332,252.7908 59.8332,201.4288 C59.8332,150.0668 101.4712,108.4288 152.8332,108.4288 C204.1962,108.4288 245.8332,150.0668 245.8332,201.4288 Z" id="Stroke-15" style="mix-blend-mode: overlay;"></path>
                <path d="M229.5388,200.4776 C229.5388,251.8406 187.9018,293.4776 136.5388,293.4776 C85.1768,293.4776 43.5388,251.8406 43.5388,200.4776 C43.5388,149.1156 85.1768,107.4786 136.5388,107.4786 C187.9018,107.4786 229.5388,149.1156 229.5388,200.4776 Z" id="Stroke-17" style="mix-blend-mode: overlay;"></path>
                <path d="M214.6506,196.5381 C214.6506,247.9001 173.0126,289.5381 121.6506,289.5381 C70.2886,289.5381 28.6506,247.9001 28.6506,196.5381 C28.6506,145.1761 70.2886,103.5391 121.6506,103.5391 C173.0126,103.5391 214.6506,145.1761 214.6506,196.5381 Z" id="Stroke-19" style="mix-blend-mode: overlay;"></path>
                <path d="M202.1687,189.7637 C202.1687,241.1257 160.5317,282.7637 109.1687,282.7637 C57.8067,282.7637 16.1687,241.1257 16.1687,189.7637 C16.1687,138.4007 57.8067,96.7637 109.1687,96.7637 C160.5317,96.7637 202.1687,138.4007 202.1687,189.7637 Z" id="Stroke-21" style="mix-blend-mode: overlay;"></path>
                <path d="M193.0939,180.3067 C193.0939,231.6697 151.4559,273.3067 100.0939,273.3067 C48.7309,273.3067 7.0939,231.6697 7.0939,180.3067 C7.0939,128.9447 48.7309,87.3077 100.0939,87.3077 C151.4559,87.3077 193.0939,128.9447 193.0939,180.3067 Z" id="Stroke-23" style="mix-blend-mode: overlay;"></path>
                <path d="M186.5002,161.3653 C186.5002,212.7273 144.8622,254.3653 93.5002,254.3653 C42.1372,254.3653 0.5002,212.7273 0.5002,161.3653 C0.5002,110.0023 42.1372,68.3653 93.5002,68.3653 C144.8622,68.3653 186.5002,110.0023 186.5002,161.3653 Z" id="Stroke-25" style="mix-blend-mode: overlay;"></path>
                <path d="M188.4763,139.5079 C188.4763,190.8699 146.8383,232.5079 95.4763,232.5079 C44.1143,232.5079 2.4763,190.8699 2.4763,139.5079 C2.4763,88.1449 44.1143,46.5079 95.4763,46.5079 C146.8383,46.5079 188.4763,88.1449 188.4763,139.5079 Z" id="Stroke-27" style="mix-blend-mode: overlay;"></path>
                <path d="M197.5891,120.8272 C197.5891,172.1892 155.9521,213.8272 104.5891,213.8272 C53.2271,213.8272 11.5891,172.1892 11.5891,120.8272 C11.5891,69.4652 53.2271,27.8272 104.5891,27.8272 C155.9521,27.8272 197.5891,69.4652 197.5891,120.8272 Z" id="Stroke-29" style="mix-blend-mode: overlay;"></path>
                <path d="M209.4865,106.2891 C209.4865,157.6511 167.8495,199.2891 116.4865,199.2891 C65.1245,199.2891 23.4865,157.6511 23.4865,106.2891 C23.4865,54.9261 65.1245,13.2891 116.4865,13.2891 C167.8495,13.2891 209.4865,54.9261 209.4865,106.2891 Z" id="Stroke-31" style="mix-blend-mode: overlay;"></path>
                <path d="M219.8166,96.858 C219.8166,148.221 178.1796,189.858 126.8166,189.858 C75.4546,189.858 33.8166,148.221 33.8166,96.858 C33.8166,45.496 75.4546,3.858 126.8166,3.858 C178.1796,3.858 219.8166,45.496 219.8166,96.858 Z" id="Stroke-33" style="mix-blend-mode: overlay;"></path>
                <path d="M224.2272,93.5001 C224.2272,144.8621 182.5892,186.5001 131.2272,186.5001 C79.8652,186.5001 38.2272,144.8621 38.2272,93.5001 C38.2272,42.1381 79.8652,0.5001 131.2272,0.5001 C182.5892,0.5001 224.2272,42.1381 224.2272,93.5001 Z" id="Stroke-35" style="mix-blend-mode: overlay;"></path>
            </g>
        </g>
    </g>
</svg>
