<svg xmlns="http://www.w3.org/2000/svg" width="214.12" height="134" viewBox="0 0 214.12 134"><defs><style>.cls-1,.cls-2,.cls-3{fill:none;}.cls-1,.cls-3{stroke:#b8bfca;}.cls-1,.cls-2,.cls-3,.cls-4,.cls-5,.cls-6{stroke-linecap:round;stroke-linejoin:round;stroke-width:2px;}.cls-2{stroke:#bde4fd;}.cls-3{stroke-dasharray:0 5.99;}.cls-4{fill:#fff;}.cls-4,.cls-5,.cls-6{stroke:#1b6dc6;}.cls-5{fill:#bde4fd;}.cls-6{fill:#e9f6fe;}</style></defs><title>trial</title><g id="Layer_2" data-name="Layer 2"><g id="Layer_1-2" data-name="Layer 1"><path class="cls-1" d="M194.88,44.69c5.9,7.21,9.19,15.26,9.19,23.75,0,30.85-43.43,55.86-97,55.86s-97-25-97-55.86c0-29.82,40.61-54.19,91.73-55.77"/><line class="cls-1" x1="41.98" y1="68.44" x2="25.57" y2="68.44"/><line class="cls-1" x1="107.06" y1="105.36" x2="107.06" y2="114.8"/><line class="cls-1" x1="172.15" y1="68.44" x2="188.55" y2="68.44"/><line class="cls-1" x1="107.06" y1="21.53" x2="107.06" y2="30.97"/><line class="cls-1" x1="66.32" y1="27.81" x2="69.34" y2="30.83"/><line class="cls-1" x1="36.49" y1="44.99" x2="41.73" y2="46.73"/><line class="cls-1" x1="36.49" y1="91.9" x2="41.73" y2="90.16"/><line class="cls-1" x1="66.32" y1="109.08" x2="69.34" y2="106.06"/><line class="cls-1" x1="147.8" y1="109.08" x2="144.78" y2="106.06"/><line class="cls-1" x1="177.63" y1="91.9" x2="172.39" y2="90.16"/><line class="cls-1" x1="177.63" y1="44.99" x2="172.39" y2="46.73"/><line class="cls-2" x1="147.8" y1="27.81" x2="144.78" y2="30.83"/><path class="cls-2" d="M107.06,12.59V68.44l84-27.92c-16.77-16.69-48.1-27.93-84-27.93Z"/><line class="cls-1" x1="100.26" y1="4.01" x2="100.26" y2="4.01"/><path class="cls-3" d="M94.28,4.33C41.05,8.06,1,34.88,1,68.44,1,104.64,47.59,133,107.06,133s106.06-28.36,106.06-64.56c0-10.71-4.1-20.73-11.39-29.54"/><line class="cls-1" x1="199.77" y1="36.64" x2="199.77" y2="36.64"/><polyline class="cls-1" points="100.26 7.02 109.31 4.01 100.26 1 100.26 4.01 100.26 7.02"/><polygon class="cls-4" points="130.06 39.53 107.06 26.25 84.06 39.53 107.06 52.81 130.06 39.53"/><polygon class="cls-5" points="130.06 70.19 107.06 83.47 107.06 52.81 130.06 39.53 130.06 70.19"/><polygon class="cls-6" points="84.06 70.19 107.06 83.47 107.06 52.81 84.06 39.53 84.06 70.19"/></g></g></svg>