<?xml version="1.0" encoding="UTF-8"?>
<svg width="146px" height="123px" viewBox="0 0 146 123" version="1.1" xmlns="http://www.w3.org/2000/svg" xmlns:xlink="http://www.w3.org/1999/xlink">
    <!-- Generator: Sketch 52.5 (67469) - http://www.bohemiancoding.com/sketch -->
    <title>Artboard</title>
    <desc>Created with Sketch.</desc>
    <g id="Artboard" stroke="none" stroke-width="1" fill="none" fill-rule="evenodd">
        <g id="xi" transform="translate(16.000000, 29.000000)" fill="#4D4D4F" fill-rule="nonzero" stroke="#4D4D4F">
            <path d="M106.328174,59.2094542 C108.068728,54.4722455 108.870467,49.4811245 108.711238,44.3730883 C108.401757,34.4596749 104.336156,25.0752197 97.261602,17.9463079 C90.187168,10.8171349 80.8345745,6.68176081 70.9248053,6.29980051 C60.1036524,5.88192691 49.8586866,9.77616134 42.0756404,17.265064 C40.5786973,18.705424 39.2058671,20.246181 37.9654352,21.8759999 C46.0507728,22.5953402 53.5411842,26.1177841 59.2955311,31.9331203 C65.7037607,38.4082839 69.2339539,46.9949597 69.2339539,56.1061532 C69.2339539,57.080976 69.1929841,58.0637535 69.1119406,59.0279727 C69.0951244,59.2263674 69.1695432,59.3936167 69.2925221,59.5271471 C69.4398154,59.6869859 69.6626034,59.7825135 69.8876681,59.7867734 L105.658092,59.6642051 C105.960204,59.6630476 106.229462,59.4778633 106.328174,59.2094542 Z M26.1808588,58.7924148 C24.8876944,54.5434146 24.2320791,50.1166386 24.2320791,45.6347023 C24.2320791,39.6658213 25.3743673,33.8558363 27.5938491,28.4558258 C22.8724292,29.7111011 18.5357905,32.1823657 14.9423424,35.6874532 C9.44832695,41.0467663 6.36989765,48.1608157 6.2713175,55.7234853 C6.25635291,56.8730732 6.30968172,58.0297867 6.43257321,59.2140967 C6.43257321,59.2140967 6.43257321,59.2140967 6.429804,59.1619366 C6.46952734,59.5377985 6.77435263,59.8171313 7.14145929,59.8206963 C7.14464311,59.8205949 7.14826534,59.8204806 7.15240448,59.8203501 L25.5071077,59.7055893 C25.7660595,59.703868 25.9474852,59.5899405 26.0746631,59.4167882 C26.2012467,59.2453116 26.2558782,59.0393266 26.1808588,58.7924148 Z M34.3905923,27.5123412 C31.5033142,33.0652419 30.0009494,39.2402542 30.0009494,45.6347023 C30.0009494,49.4950657 30.5579801,53.3076357 31.6563974,56.9683844 C32.5718091,60.0193097 31.3801097,63.2084951 28.5144494,64.7136701 C27.5584766,65.2159332 26.4588648,65.4690312 25.3055111,65.4760001 L7.18597769,65.5896009 C7.17626781,65.5896009 7.17626781,65.5896009 7.16646034,65.5896009 C7.15665286,65.5896009 7.15665286,65.5896009 7.14694298,65.5896009 C3.81566389,65.5896009 1.04500172,63.0920293 0.692636108,59.769906 C0.548891654,58.4124515 0.48509684,57.0261104 0.502922229,55.648406 C0.621369653,46.5461771 4.31962821,37.9892754 10.9140246,31.55764 C16.4290875,26.1781006 23.4019315,22.8403465 30.9065797,21.9679705 C32.8962364,18.7516197 35.2991011,15.7791173 38.0752595,13.1078573 C46.9969294,4.52324143 58.7465337,0.056450558 71.1468135,0.534796117 C94.7098081,1.44270484 113.741478,20.6183245 114.47728,44.1927758 L114.477279,44.1927641 C114.659975,50.0418077 113.740165,55.7637918 111.743701,61.1988968 C110.816175,63.7236622 108.379717,65.4241536 105.677719,65.4334592 L69.9057759,65.5556407 C69.8956269,65.5556407 69.8956269,65.5556407 69.8850875,65.5556407 C68.0530568,65.5556407 66.2937152,64.7850834 65.0511682,63.438181 C63.8276306,62.111377 63.2122597,60.328214 63.3630014,58.5434496 C63.4304852,57.7390121 63.4646933,56.9187918 63.4646933,56.1061532 C63.4646933,48.522848 60.5284175,41.3806343 55.1949748,35.9911752 C49.8651525,30.6053344 42.7627683,27.5940658 35.1911049,27.5100385 C34.9256173,27.5069644 34.6582854,27.5077473 34.3905923,27.5123412 Z" id="Fill-1"></path>
        </g>
    </g>
</svg>